<svg xmlns="http://www.w3.org/2000/svg" width="525.596" height="231.416" viewBox="0 0 525.596 231.416"><g transform="translate(-1701.649 -496.404)"><path d="M295.525,253.748l1.223,122.243c19.186,3.268,28.576,3.16,44.486-6.94,8.17-4.7,13.78-12.35,24.085-11.835,60,4.483,66.537,46.528,37.557,39.991s-42.052-1.73-64.08,14.692c-35.916,29.4-78.372,57.555-135.923,58.374s-74.584-32.044-84.489-73.062l-20-87.33c-4.8-16.137,14.122-19.089,22.346-11.85,12.65,10.915,26.631,25.1,51.019,37.449,37.657,17.037,41.848-22.886,44.14-49.977.6-7.063.976-16.241,2.492-35.216,1.023-12.788,18.367-12.253,20-.419l3.441,24.077,3.695-24.48c2.249-13.677,18.171-13.623,19.4.008L267.9,276.26s4.437-16.468,6.8-26.592c2.671-14.377,19.815-15.719,20.827,4.079Z" transform="translate(1604.033 257.533)" fill="#134c79"/><text transform="translate(1822.594 606)" fill="#ffce3e" font-size="61" font-family="SFProRounded-Bold, SF Pro Rounded" font-weight="700"><tspan x="0" y="0">Py</tspan></text><text transform="translate(1910.245 606)" fill="#134c79" font-size="61" font-family="SFProRounded-Semibold, SF Pro Rounded" font-weight="600"><tspan x="0" y="0">Chandigarh</tspan></text></g></svg>